{
  "asset": {
    "generator": "UnityGLTF",
    "version": "2.0"
  },
  "extensionsUsed": [
    "KHR_texture_transform"
  ],
  "scene": 0,
  "scenes": [
    {
      "nodes": [
        0,
        3,
        6,
        9,
        13,
        15
      ],
      "name": "Project Name_0"
    }
  ],
  "accessors": [
    {
      "bufferView": 0,
      "componentType": 5126,
      "count": 66,
      "type": "VEC3",
      "max": [
        0.5,
        0.5,
        0.0
      ],
      "min": [
        -0.5,
        -0.5,
        0.0
      ]
    },
    {
      "bufferView": 1,
      "componentType": 5126,
      "count": 66,
      "type": "VEC3",
      "max": [
        0.0,
        0.0,
        1.0
      ],
      "min": [
        0.0,
        0.0,
        -1.0
      ]
    },
    {
      "bufferView": 2,
      "componentType": 5126,
      "count": 66,
      "type": "VEC2",
      "max": [
        1.0,
        1.0
      ],
      "min": [
        0.0,
        0.0
      ]
    },
    {
      "bufferView": 3,
      "componentType": 5121,
      "count": 192,
      "type": "SCALAR",
      "max": [
        65.0
      ],
      "min": [
        0.0
      ]
    },
    {
      "bufferView": 4,
      "componentType": 5126,
      "count": 247,
      "type": "VEC3",
      "max": [
        0.017821291461586952,
        0.0071184961125254631,
        0.00081124092685058713
      ],
      "min": [
        -0.017821291461586952,
        -0.0071184961125254631,
        -0.00081124092685058713
      ]
    },
    {
      "bufferView": 5,
      "componentType": 5126,
      "count": 247,
      "type": "VEC3",
      "max": [
        1.0,
        1.0,
        1.0
      ],
      "min": [
        -1.0,
        -1.0,
        -1.0
      ]
    },
    {
      "bufferView": 6,
      "componentType": 5126,
      "count": 247,
      "type": "VEC4",
      "max": [
        1.0,
        0.99986004829406738,
        1.0,
        1.0
      ],
      "min": [
        -1.0,
        -0.99999034404754639,
        0.0,
        -1.0
      ]
    },
    {
      "bufferView": 7,
      "componentType": 5126,
      "count": 247,
      "type": "VEC2",
      "max": [
        0.875,
        1.0
      ],
      "min": [
        0.125,
        0.010120093822479248
      ]
    },
    {
      "bufferView": 8,
      "componentType": 5121,
      "count": 468,
      "type": "SCALAR",
      "max": [
        246.0
      ],
      "min": [
        0.0
      ]
    },
    {
      "bufferView": 9,
      "componentType": 5126,
      "count": 32,
      "type": "VEC3",
      "max": [
        7.4846892356872559,
        2.6787748336791992,
        0.0
      ],
      "min": [
        -7.5545778274536133,
        -0.11800837516784668,
        0.0
      ]
    },
    {
      "bufferView": 10,
      "componentType": 5126,
      "count": 32,
      "type": "VEC3",
      "max": [
        0.0,
        0.0,
        -1.0
      ],
      "min": [
        0.0,
        0.0,
        -1.0
      ]
    },
    {
      "bufferView": 11,
      "componentType": 5126,
      "count": 32,
      "type": "VEC4",
      "max": [
        1.0,
        0.0,
        0.0,
        -1.0
      ],
      "min": [
        1.0,
        0.0,
        0.0,
        -1.0
      ]
    },
    {
      "bufferView": 12,
      "componentType": 5126,
      "count": 32,
      "type": "VEC2",
      "max": [
        0.9925537109375,
        1.0
      ],
      "min": [
        0.0,
        0.0914306640625
      ]
    },
    {
      "bufferView": 13,
      "componentType": 5126,
      "count": 32,
      "type": "VEC2",
      "max": [
        2093567.0,
        1.0005477666854858
      ],
      "min": [
        0.0,
        1.0
      ]
    },
    {
      "bufferView": 14,
      "componentType": 5126,
      "count": 32,
      "type": "VEC4",
      "max": [
        1.0,
        1.0,
        1.0,
        1.0
      ],
      "min": [
        1.0,
        1.0,
        1.0,
        1.0
      ]
    },
    {
      "bufferView": 15,
      "componentType": 5121,
      "count": 48,
      "type": "SCALAR",
      "max": [
        31.0
      ],
      "min": [
        0.0
      ]
    },
    {
      "bufferView": 16,
      "componentType": 5126,
      "count": 66,
      "type": "VEC3",
      "max": [
        0.5,
        0.5,
        0.0
      ],
      "min": [
        -0.5,
        -0.5,
        0.0
      ]
    },
    {
      "bufferView": 17,
      "componentType": 5126,
      "count": 66,
      "type": "VEC3",
      "max": [
        0.0,
        0.0,
        1.0
      ],
      "min": [
        0.0,
        0.0,
        -1.0
      ]
    },
    {
      "bufferView": 18,
      "componentType": 5126,
      "count": 66,
      "type": "VEC2",
      "max": [
        1.0,
        1.0
      ],
      "min": [
        0.0,
        0.0
      ]
    },
    {
      "bufferView": 19,
      "componentType": 5121,
      "count": 192,
      "type": "SCALAR",
      "max": [
        65.0
      ],
      "min": [
        0.0
      ]
    },
    {
      "bufferView": 20,
      "componentType": 5126,
      "count": 138,
      "type": "VEC3",
      "max": [
        0.0053816903382539749,
        0.0053816903382539749,
        0.0012770887697115541
      ],
      "min": [
        -0.0095455460250377655,
        -0.0053816903382539749,
        -0.00043675230699591339
      ]
    },
    {
      "bufferView": 21,
      "componentType": 5126,
      "count": 138,
      "type": "VEC3",
      "max": [
        0.72788095474243164,
        0.7169533371925354,
        1.0
      ],
      "min": [
        -0.72788095474243164,
        -0.7169533371925354,
        -1.0
      ]
    },
    {
      "bufferView": 22,
      "componentType": 5126,
      "count": 138,
      "type": "VEC4",
      "max": [
        1.0,
        1.0,
        0.02453884668648243,
        1.0
      ],
      "min": [
        -1.0,
        -1.0,
        -0.02453884668648243,
        -1.0
      ]
    },
    {
      "bufferView": 23,
      "componentType": 5126,
      "count": 138,
      "type": "VEC2",
      "max": [
        1.0,
        0.99000000953674316
      ],
      "min": [
        0.0,
        0.0
      ]
    },
    {
      "bufferView": 24,
      "componentType": 5121,
      "count": 396,
      "type": "SCALAR",
      "max": [
        137.0
      ],
      "min": [
        0.0
      ]
    },
    {
      "bufferView": 25,
      "componentType": 5126,
      "count": 130,
      "type": "VEC3",
      "max": [
        0.0039090872742235661,
        0.0039090872742235661,
        0.0037106466479599476
      ],
      "min": [
        -0.0039090872742235661,
        -0.0039090872742235661,
        0.0020073938649147749
      ]
    },
    {
      "bufferView": 26,
      "componentType": 5126,
      "count": 130,
      "type": "VEC3",
      "max": [
        0.72788095474243164,
        0.72788095474243164,
        1.0
      ],
      "min": [
        -0.72788095474243164,
        -0.72788095474243164,
        -1.0
      ]
    },
    {
      "bufferView": 27,
      "componentType": 5126,
      "count": 130,
      "type": "VEC4",
      "max": [
        1.0,
        1.0,
        0.049044590443372726,
        1.0
      ],
      "min": [
        -0.99772721529006958,
        -1.0,
        -0.049044590443372726,
        -1.0
      ]
    },
    {
      "bufferView": 28,
      "componentType": 5126,
      "count": 130,
      "type": "VEC2",
      "max": [
        1.0,
        0.99000000953674316
      ],
      "min": [
        0.0,
        0.0
      ]
    },
    {
      "bufferView": 29,
      "componentType": 5121,
      "count": 372,
      "type": "SCALAR",
      "max": [
        129.0
      ],
      "min": [
        0.0
      ]
    },
    {
      "bufferView": 30,
      "componentType": 5126,
      "count": 64,
      "type": "VEC3",
      "max": [
        0.32758179306983948,
        0.039461605250835419,
        0.0
      ],
      "min": [
        -0.2728380560874939,
        -0.056687157601118088,
        0.0
      ]
    },
    {
      "bufferView": 31,
      "componentType": 5126,
      "count": 64,
      "type": "VEC3",
      "max": [
        0.0,
        0.0,
        -1.0
      ],
      "min": [
        0.0,
        0.0,
        -1.0
      ]
    },
    {
      "bufferView": 32,
      "componentType": 5126,
      "count": 64,
      "type": "VEC4",
      "max": [
        1.0,
        0.0,
        0.0,
        -1.0
      ],
      "min": [
        1.0,
        0.0,
        0.0,
        -1.0
      ]
    },
    {
      "bufferView": 33,
      "componentType": 5126,
      "count": 64,
      "type": "VEC2",
      "max": [
        0.99072265625,
        1.0
      ],
      "min": [
        0.0,
        0.01318359375
      ]
    },
    {
      "bufferView": 34,
      "componentType": 5126,
      "count": 64,
      "type": "VEC2",
      "max": [
        2093567.0,
        1.0
      ],
      "min": [
        0.0,
        0.99859154224395752
      ]
    },
    {
      "bufferView": 35,
      "componentType": 5126,
      "count": 64,
      "type": "VEC4",
      "max": [
        0.88235294818878174,
        0.88235294818878174,
        0.88235294818878174,
        1.0
      ],
      "min": [
        0.0,
        0.0,
        0.0,
        0.0
      ]
    },
    {
      "bufferView": 36,
      "componentType": 5121,
      "count": 96,
      "type": "SCALAR",
      "max": [
        63.0
      ],
      "min": [
        0.0
      ]
    },
    {
      "bufferView": 37,
      "componentType": 5126,
      "count": 64,
      "type": "VEC3",
      "max": [
        0.32977941632270813,
        0.026309963315725327,
        0.0
      ],
      "min": [
        -0.083239972591400146,
        -0.024032466113567352,
        0.0
      ]
    },
    {
      "bufferView": 38,
      "componentType": 5126,
      "count": 64,
      "type": "VEC3",
      "max": [
        0.0,
        0.0,
        -1.0
      ],
      "min": [
        0.0,
        0.0,
        -1.0
      ]
    },
    {
      "bufferView": 39,
      "componentType": 5126,
      "count": 64,
      "type": "VEC4",
      "max": [
        1.0,
        0.0,
        0.0,
        -1.0
      ],
      "min": [
        1.0,
        0.0,
        0.0,
        -1.0
      ]
    },
    {
      "bufferView": 40,
      "componentType": 5126,
      "count": 64,
      "type": "VEC2",
      "max": [
        0.89306640625,
        1.0
      ],
      "min": [
        0.0,
        0.01318359375
      ]
    },
    {
      "bufferView": 41,
      "componentType": 5126,
      "count": 64,
      "type": "VEC2",
      "max": [
        2093567.0,
        1.0
      ],
      "min": [
        0.0,
        0.99859154224395752
      ]
    },
    {
      "bufferView": 42,
      "componentType": 5126,
      "count": 64,
      "type": "VEC4",
      "max": [
        0.88235294818878174,
        0.88235294818878174,
        0.88235294818878174,
        1.0
      ],
      "min": [
        0.0,
        0.0,
        0.0,
        0.0
      ]
    },
    {
      "bufferView": 43,
      "componentType": 5121,
      "count": 96,
      "type": "SCALAR",
      "max": [
        63.0
      ],
      "min": [
        0.0
      ]
    }
  ],
  "buffers": [
    {
      "uri": "Project Name_0.bin",
      "byteLength": 42324
    }
  ],
  "bufferViews": [
    {
      "buffer": 0,
      "byteLength": 792,
      "byteStride": 12,
      "target": 34962
    },
    {
      "buffer": 0,
      "byteOffset": 792,
      "byteLength": 792,
      "byteStride": 12,
      "target": 34962
    },
    {
      "buffer": 0,
      "byteOffset": 1584,
      "byteLength": 528,
      "target": 34962
    },
    {
      "buffer": 0,
      "byteOffset": 2112,
      "byteLength": 192,
      "target": 34963
    },
    {
      "buffer": 0,
      "byteOffset": 2304,
      "byteLength": 2964,
      "byteStride": 12,
      "target": 34962
    },
    {
      "buffer": 0,
      "byteOffset": 5268,
      "byteLength": 2964,
      "byteStride": 12,
      "target": 34962
    },
    {
      "buffer": 0,
      "byteOffset": 8232,
      "byteLength": 3952,
      "target": 34962
    },
    {
      "buffer": 0,
      "byteOffset": 12184,
      "byteLength": 1976,
      "target": 34962
    },
    {
      "buffer": 0,
      "byteOffset": 14160,
      "byteLength": 468,
      "target": 34963
    },
    {
      "buffer": 0,
      "byteOffset": 14628,
      "byteLength": 384,
      "byteStride": 12,
      "target": 34962
    },
    {
      "buffer": 0,
      "byteOffset": 15012,
      "byteLength": 384,
      "byteStride": 12,
      "target": 34962
    },
    {
      "buffer": 0,
      "byteOffset": 15396,
      "byteLength": 512,
      "target": 34962
    },
    {
      "buffer": 0,
      "byteOffset": 15908,
      "byteLength": 256,
      "target": 34962
    },
    {
      "buffer": 0,
      "byteOffset": 16164,
      "byteLength": 256,
      "target": 34962
    },
    {
      "buffer": 0,
      "byteOffset": 16420,
      "byteLength": 512,
      "target": 34962
    },
    {
      "buffer": 0,
      "byteOffset": 16932,
      "byteLength": 48,
      "target": 34963
    },
    {
      "buffer": 0,
      "byteOffset": 16980,
      "byteLength": 792,
      "byteStride": 12,
      "target": 34962
    },
    {
      "buffer": 0,
      "byteOffset": 17772,
      "byteLength": 792,
      "byteStride": 12,
      "target": 34962
    },
    {
      "buffer": 0,
      "byteOffset": 18564,
      "byteLength": 528,
      "target": 34962
    },
    {
      "buffer": 0,
      "byteOffset": 19092,
      "byteLength": 192,
      "target": 34963
    },
    {
      "buffer": 0,
      "byteOffset": 19284,
      "byteLength": 1656,
      "byteStride": 12,
      "target": 34962
    },
    {
      "buffer": 0,
      "byteOffset": 20940,
      "byteLength": 1656,
      "byteStride": 12,
      "target": 34962
    },
    {
      "buffer": 0,
      "byteOffset": 22596,
      "byteLength": 2208,
      "target": 34962
    },
    {
      "buffer": 0,
      "byteOffset": 24804,
      "byteLength": 1104,
      "target": 34962
    },
    {
      "buffer": 0,
      "byteOffset": 25908,
      "byteLength": 396,
      "target": 34963
    },
    {
      "buffer": 0,
      "byteOffset": 26304,
      "byteLength": 1560,
      "byteStride": 12,
      "target": 34962
    },
    {
      "buffer": 0,
      "byteOffset": 27864,
      "byteLength": 1560,
      "byteStride": 12,
      "target": 34962
    },
    {
      "buffer": 0,
      "byteOffset": 29424,
      "byteLength": 2080,
      "target": 34962
    },
    {
      "buffer": 0,
      "byteOffset": 31504,
      "byteLength": 1040,
      "target": 34962
    },
    {
      "buffer": 0,
      "byteOffset": 32544,
      "byteLength": 372,
      "target": 34963
    },
    {
      "buffer": 0,
      "byteOffset": 32916,
      "byteLength": 768,
      "byteStride": 12,
      "target": 34962
    },
    {
      "buffer": 0,
      "byteOffset": 33684,
      "byteLength": 768,
      "byteStride": 12,
      "target": 34962
    },
    {
      "buffer": 0,
      "byteOffset": 34452,
      "byteLength": 1024,
      "target": 34962
    },
    {
      "buffer": 0,
      "byteOffset": 35476,
      "byteLength": 512,
      "target": 34962
    },
    {
      "buffer": 0,
      "byteOffset": 35988,
      "byteLength": 512,
      "target": 34962
    },
    {
      "buffer": 0,
      "byteOffset": 36500,
      "byteLength": 1024,
      "target": 34962
    },
    {
      "buffer": 0,
      "byteOffset": 37524,
      "byteLength": 96,
      "target": 34963
    },
    {
      "buffer": 0,
      "byteOffset": 37620,
      "byteLength": 768,
      "byteStride": 12,
      "target": 34962
    },
    {
      "buffer": 0,
      "byteOffset": 38388,
      "byteLength": 768,
      "byteStride": 12,
      "target": 34962
    },
    {
      "buffer": 0,
      "byteOffset": 39156,
      "byteLength": 1024,
      "target": 34962
    },
    {
      "buffer": 0,
      "byteOffset": 40180,
      "byteLength": 512,
      "target": 34962
    },
    {
      "buffer": 0,
      "byteOffset": 40692,
      "byteLength": 512,
      "target": 34962
    },
    {
      "buffer": 0,
      "byteOffset": 41204,
      "byteLength": 1024,
      "target": 34962
    },
    {
      "buffer": 0,
      "byteOffset": 42228,
      "byteLength": 96,
      "target": 34963
    }
  ],
  "images": [
    {
      "uri": "Button%233_mainTexture.png",
      "name": "Arial-Bold SDF Atlas"
    },
    {
      "uri": "Image%231_mainTexture.png",
      "name": "gradienta-BaMzgpUU07Y-unsplash (1)"
    },
    {
      "uri": "Text%231_mainTexture.png",
      "name": "Arial-Regular SDF Atlas"
    }
  ],
  "materials": [
    {
      "pbrMetallicRoughness": {
        "baseColorFactor": [
          0.0437350161,
          0.0423114,
          0.064803265,
          1.0
        ],
        "metallicFactor": 0.0,
        "roughnessFactor": 0.33700001239776611
      },
      "alphaMode": "BLEND",
      "name": "PanelMat (Instance)"
    },
    {
      "pbrMetallicRoughness": {
        "baseColorFactor": [
          0.04970655,
          0.177888468,
          1.0,
          1.0
        ],
        "metallicFactor": 0.0,
        "roughnessFactor": 0.85999999940395355
      },
      "name": "ButtonMatDark (Instance)"
    },
    {
      "pbrMetallicRoughness": {
        "baseColorTexture": {
          "index": 0,
          "extensions": {
            "KHR_texture_transform": {}
          }
        },
        "metallicFactor": 0.0
      },
      "alphaMode": "BLEND",
      "doubleSided": true,
      "name": "Arial-Bold SDF Material"
    },
    {
      "pbrMetallicRoughness": {
        "baseColorTexture": {
          "index": 1,
          "extensions": {
            "KHR_texture_transform": {}
          }
        },
        "metallicFactor": 0.0
      },
      "alphaMode": "BLEND",
      "name": "PlaybookImage (Instance)"
    },
    {
      "pbrMetallicRoughness": {
        "baseColorFactor": [
          0.0497065634,
          0.177888468,
          1.0,
          1.0
        ],
        "metallicFactor": 0.0,
        "roughnessFactor": 0.84999999403953552
      },
      "name": "ButtonMatBlue (Instance)"
    },
    {
      "pbrMetallicRoughness": {
        "metallicFactor": 0.0,
        "roughnessFactor": 0.5
      },
      "name": "ButtonMatWhite"
    },
    {
      "pbrMetallicRoughness": {
        "baseColorTexture": {
          "index": 2,
          "extensions": {
            "KHR_texture_transform": {}
          }
        },
        "metallicFactor": 0.0
      },
      "alphaMode": "BLEND",
      "doubleSided": true,
      "name": "Arial-Regular SDF Material (Instance)"
    },
    {
      "pbrMetallicRoughness": {
        "baseColorTexture": {
          "index": 2,
          "extensions": {
            "KHR_texture_transform": {}
          }
        },
        "metallicFactor": 0.0
      },
      "alphaMode": "BLEND",
      "doubleSided": true,
      "name": "Arial-Regular SDF Material (Instance)"
    }
  ],
  "meshes": [
    {
      "primitives": [
        {
          "attributes": {
            "POSITION": 0,
            "NORMAL": 1,
            "TEXCOORD_0": 2
          },
          "indices": 3,
          "material": 0
        }
      ],
      "name": "PanelObject"
    },
    {
      "primitives": [
        {
          "attributes": {
            "POSITION": 4,
            "NORMAL": 5,
            "TANGENT": 6,
            "TEXCOORD_0": 7
          },
          "indices": 8,
          "material": 1
        }
      ],
      "name": "Cube"
    },
    {
      "primitives": [
        {
          "attributes": {
            "POSITION": 9,
            "NORMAL": 10,
            "TANGENT": 11,
            "TEXCOORD_0": 12,
            "TEXCOORD_1": 13,
            "COLOR_0": 14
          },
          "indices": 15,
          "material": 2
        }
      ],
      "name": "Title (1)"
    },
    {
      "primitives": [
        {
          "attributes": {
            "POSITION": 16,
            "NORMAL": 17,
            "TEXCOORD_0": 18
          },
          "indices": 19,
          "material": 3
        }
      ],
      "name": "PlaybookImage"
    },
    {
      "primitives": [
        {
          "attributes": {
            "POSITION": 20,
            "NORMAL": 21,
            "TANGENT": 22,
            "TEXCOORD_0": 23
          },
          "indices": 24,
          "material": 4
        }
      ],
      "name": "bg"
    },
    {
      "primitives": [
        {
          "attributes": {
            "POSITION": 25,
            "NORMAL": 26,
            "TANGENT": 27,
            "TEXCOORD_0": 28
          },
          "indices": 29,
          "material": 5
        }
      ],
      "name": "knob"
    },
    {
      "primitives": [
        {
          "attributes": {
            "POSITION": 30,
            "NORMAL": 31,
            "TANGENT": 32,
            "TEXCOORD_0": 33,
            "TEXCOORD_1": 34,
            "COLOR_0": 35
          },
          "indices": 36,
          "material": 6
        }
      ],
      "name": "TextMesh"
    },
    {
      "primitives": [
        {
          "attributes": {
            "POSITION": 37,
            "NORMAL": 38,
            "TANGENT": 39,
            "TEXCOORD_0": 40,
            "TEXCOORD_1": 41,
            "COLOR_0": 42
          },
          "indices": 43,
          "material": 7
        }
      ],
      "name": "TextMesh"
    }
  ],
  "nodes": [
    {
      "children": [
        1
      ],
      "translation": [
        -0.0365668833,
        -0.03624803,
        1.26535
      ],
      "name": "Panel#1"
    },
    {
      "children": [
        2
      ],
      "name": "Content"
    },
    {
      "mesh": 0,
      "name": "PanelObject"
    },
    {
      "children": [
        4
      ],
      "translation": [
        -0.05732014,
        -0.427918643,
        1.25740886
      ],
      "name": "Button#3"
    },
    {
      "children": [
        5
      ],
      "mesh": 1,
      "scale": [
        6.58039474,
        6.580395,
        34.77147
      ],
      "translation": [
        0.0,
        0.0,
        -0.0016310513
      ],
      "name": "Cube"
    },
    {
      "mesh": 2,
      "scale": [
        0.00157231162,
        0.00157231267,
        0.00157231139
      ],
      "translation": [
        -0.0003,
        -0.00213,
        -0.00082
      ],
      "name": "Title (1)"
    },
    {
      "children": [
        7,
        8
      ],
      "translation": [
        -0.0357399881,
        -0.0154508948,
        1.24013591
      ],
      "name": "Image#1"
    },
    {
      "mesh": 3,
      "scale": [
        0.745586,
        0.441026568,
        0.004259525
      ],
      "name": "PlaybookImage"
    },
    {
      "name": "loadingProgressIndicatorCanvas"
    },
    {
      "children": [
        10
      ],
      "translation": [
        -0.321419775,
        -0.320462167,
        1.27269411
      ],
      "name": "Toggle#1"
    },
    {
      "children": [
        11,
        12
      ],
      "scale": [
        1.2906,
        1.2906,
        1.2906
      ],
      "translation": [
        0.0,
        0.0,
        -0.017
      ],
      "name": "Container"
    },
    {
      "mesh": 4,
      "rotation": [
        -1.0,
        0.0,
        0.0,
        0.0
      ],
      "scale": [
        6.83402967,
        6.83402872,
        6.83402872
      ],
      "name": "bg"
    },
    {
      "mesh": 5,
      "rotation": [
        -1.0,
        0.0,
        0.0,
        0.0
      ],
      "scale": [
        6.83402967,
        6.83402872,
        6.83402872
      ],
      "translation": [
        0.0028,
        0.0,
        0.0
      ],
      "name": "knob"
    },
    {
      "children": [
        14
      ],
      "translation": [
        -0.0802829862,
        0.326969355,
        1.25481808
      ],
      "name": "Text#1"
    },
    {
      "mesh": 6,
      "name": "TextMesh"
    },
    {
      "children": [
        16
      ],
      "translation": [
        -0.0007368177,
        -0.3169951,
        1.23921347
      ],
      "name": "Text#2"
    },
    {
      "mesh": 7,
      "name": "TextMesh"
    }
  ],
  "samplers": [
    {},
    {
      "minFilter": 9985
    },
    {}
  ],
  "textures": [
    {
      "sampler": 0,
      "source": 0,
      "name": "Arial-Bold SDF Atlas"
    },
    {
      "sampler": 1,
      "source": 1,
      "name": "gradienta-BaMzgpUU07Y-unsplash (1)"
    },
    {
      "sampler": 2,
      "source": 2,
      "name": "Arial-Regular SDF Atlas"
    }
  ]
}