<svg id="Layer_1" data-name="Layer 1" xmlns="http://www.w3.org/2000/svg" viewBox="0 0 109.41 65"><rect x="3.5" y="3.5" width="102.41" height="58" rx="16.68" style="fill:none;stroke:#000;stroke-linejoin:round;stroke-width:7px"/><path d="M36.24,48.84a2,2,0,0,1-1.78-1.15L23.39,17.46a1.84,1.84,0,0,1,1.78-1.84h5.45a1.8,1.8,0,0,1,1.66,1.21l7.29,20.42,7.28-20.42a1.8,1.8,0,0,1,1.67-1.21H54a1.84,1.84,0,0,1,1.78,1.84L44.67,47.69a2,2,0,0,1-1.78,1.15Z"/><path d="M70.61,40H68v7a1.84,1.84,0,0,1-1.78,1.84H61.31A1.83,1.83,0,0,1,59.54,47V17.46a1.83,1.83,0,0,1,1.77-1.84H73s13,.12,13,12.22c0,6-3.21,9-6.42,10.5L86.38,47a1.76,1.76,0,0,1-1.77,1.84h-5.8a1.91,1.91,0,0,1-1.43-.69ZM68,32.09h5c2.24,0,4.08-1.15,4.08-4.25s-1.84-4.36-4.08-4.36H68Z"/></svg>
