<?xml version="1.0" encoding="UTF-8"?><svg id="Layer_1" xmlns="http://www.w3.org/2000/svg" viewBox="0 0 4000 888.23"><path d="m3917.05,463.26c-.65,0-1.3-.59-1.3-1.24v-3.46c0-.71.65-1.3,1.3-1.3h28.15c.65,0,1.3.59,1.3,1.3v3.46c0,.65-.65,1.24-1.3,1.24h-10.88v30.37c0,.65-.65,1.37-1.3,1.37h-3.78c-.65,0-1.3-.72-1.3-1.37v-30.37h-10.89Z" fill="#fff"/><path d="m3979.6,488.09c-.52,0-.78-.26-.98-.52l-12.25-19.62v25.68c0,.65-.65,1.37-1.3,1.37h-3.78c-.65,0-1.3-.72-1.3-1.37v-35c0-.65.65-1.37,1.3-1.37h5.34c.39,0,.78.26.98.59l12.38,19.81,12.38-19.81c.19-.33.59-.59.98-.59h5.34c.65,0,1.3.72,1.3,1.37v35c0,.65-.65,1.37-1.3,1.37h-3.78c-.65,0-1.3-.72-1.3-1.37v-25.68l-12.25,19.62c-.2.26-.46.52-.98.52h-.78Z" fill="#fff"/><path d="m1268.71,135.76c-19.87,0-58.77,9.11-76.16,33.94-.83-14.9-13.24-24.83-28.14-24.83h-76.99c-15.73,0-28.14,13.24-28.14,28.97v293.04c0,15.73,12.42,28.97,28.14,28.97h76.99c15.73,0,28.14-13.25,28.14-28.97v-157.28c0-12.41,7.45-49.67,40.56-49.67s33.94,31.45,33.94,43.04v163.9c0,15.73,12.42,28.97,28.14,28.97h76.99c15.73,0,28.14-12.42,28.14-28.15v-192.87c0-9.11-9.11-139.07-131.62-139.07Z" fill="#fff"/><path d="m1786.07,0h-76.99c-15.73,0-28.15,13.25-28.15,28.97v143.21c-25.66-36.42-79.47-36.42-86.09-36.42-99.34,0-169.7,82.78-169.7,184.6s70.36,184.6,169.7,184.6c6.62,0,60.43,0,86.09-36.42.83,14.9,13.24,27.32,28.15,27.32h76.99c15.73,0,28.14-13.25,28.14-28.97V28.97c0-15.73-12.42-28.97-28.14-28.97Zm-167.22,380.79c-33.11,0-60.43-25.66-60.43-60.43s27.32-60.43,60.43-60.43c34.77,0,62.08,25.66,62.08,60.43s-27.31,60.43-62.08,60.43Z" fill="#fff"/><path d="m2037.71,135.76c-105.96,0-190.39,82.78-190.39,184.6s84.43,184.6,190.39,184.6c49.67,0,94.37-14.9,121.69-27.32,9.11-4.96,15.73-14.9,15.73-25.66,0-5.79-1.65-11.59-4.97-16.56l-31.46-43.87c-5.79-7.45-14.07-10.76-24-10.76-2.48,0-4.97,0-7.45.83-28.14,8.28-59.6,9.93-71.19,9.93-19.87,0-41.39-9.11-48.84-30.63h198.67c15.73,0,28.14-13.24,28.14-28.97v-8.28c0-120.03-84.44-187.91-176.32-187.91Zm-50.49,144.03c7.45-25.66,26.49-34.77,48.84-34.77s41.39,9.11,48.84,34.77h-97.68Z" fill="#fff"/><path d="m2464.85,140.72c-8.28-.83-15.73-.83-24.01-.83-3.31,0-37.25,0-67.05,32.29-.83-14.9-13.24-27.32-28.14-27.32h-76.99c-15.73,0-28.14,13.24-28.14,28.97v293.04c0,15.73,12.42,28.97,28.14,28.97h76.99c15.73,0,28.14-13.25,28.14-28.97v-125c0-48.01,20.7-77.81,73.68-77.81,0,0,6.62,0,17.38.83,15.73,0,28.14-13.24,28.14-28.97v-66.22c0-15.73-12.42-28.97-28.14-28.97Z" fill="#fff"/><path d="m2617.97,0h-76.99c-15.73,0-28.14,13.25-28.14,28.97v437.9c0,15.73,12.42,28.97,28.14,28.97h76.99c15.73,0,28.14-13.25,28.14-28.97V28.97c0-15.73-12.42-28.97-28.14-28.97Z" fill="#fff"/><path d="m3040.14,144.87h-76.98c-14.9,0-27.32,12.41-28.15,27.32-25.66-36.42-79.46-36.42-86.09-36.42-99.33,0-169.69,82.78-169.69,184.6s70.36,184.6,169.69,184.6c6.63,0,60.43,0,86.09-36.42.83,14.9,13.25,27.32,28.15,27.32h76.98c15.73,0,28.15-13.25,28.15-28.97V173.84c0-15.73-12.42-28.97-28.15-28.97Zm-167.21,235.92c-33.11,0-60.43-25.66-60.43-60.43s27.32-60.43,60.43-60.43c34.77,0,62.08,25.66,62.08,60.43s-27.31,60.43-62.08,60.43Z" fill="#fff"/><path d="m3327.37,135.76c-19.87,0-58.78,9.11-76.16,33.94-.83-14.9-13.24-24.83-28.14-24.83h-76.99c-15.73,0-28.14,13.24-28.14,28.97v293.04c0,15.73,12.41,28.97,28.14,28.97h76.99c15.73,0,28.14-13.25,28.14-28.97v-157.28c0-12.41,7.45-49.67,40.57-49.67s33.94,31.45,33.94,43.04v163.9c0,15.73,12.41,28.97,28.14,28.97h76.99c15.73,0,28.14-12.42,28.14-28.15v-192.87c0-9.11-9.1-139.07-131.61-139.07Z" fill="#fff"/><path d="m3844.73,0h-76.98c-15.73,0-28.15,13.25-28.15,28.97v143.21c-25.66-36.42-79.47-36.42-86.09-36.42-99.34,0-169.7,82.78-169.7,184.6s70.36,184.6,169.7,184.6c6.62,0,60.43,0,86.09-36.42.83,14.9,13.24,27.32,28.15,27.32h76.98c15.73,0,28.15-13.25,28.15-28.97V28.97c0-15.73-12.42-28.97-28.15-28.97Zm-167.21,380.79c-33.11,0-60.43-25.66-60.43-60.43s27.32-60.43,60.43-60.43c34.77,0,62.08,25.66,62.08,60.43s-27.31,60.43-62.08,60.43Z" fill="#fff"/><ellipse cx="834.27" cy="320.83" rx="192.17" ry="184.86" fill="#ec158d"/><path d="m655.23,18.03h-89.4c-10.76,0-20.69,5.8-24.01,16.56l-74.14,281.45L400.63,37.9c-4.14-11.59-14.07-19.87-26.49-19.87h-81.12c-12.42,0-22.35,8.28-26.49,19.87l-67.05,278.14L140.7,34.59c-3.31-10.76-13.24-16.56-24.01-16.56H27.29C12.81,18.03.68,30.54,0,44.92c-.04.83.07,1.67.28,2.47l109.79,430.07c4.14,11.59,14.9,19.87,28.14,19.87h115.89c13.24,0,24-8.28,28.15-19.87l51.32-193.7,51.32,193.7c4.14,11.59,14.9,19.87,28.15,19.87h115.89c13.24,0,24.01-8.28,28.14-19.87l125.46-431.27c0-14.9-12.41-28.15-27.31-28.15Z" fill="#fff"/><path d="m2671.18,850.51c3.95,0,8.33,3.94,8.33,7.89v17.1c0,3.95-4.38,7.9-8.33,7.9h-150.43c-3.95,0-7.9-4.39-7.9-8.33v-237.28c0-3.95,3.94-8.33,7.9-8.33h150.43c3.95,0,8.33,3.95,8.33,7.9v17.1c0,3.95-4.38,7.89-8.33,7.89h-122.36v80.71h112.72c3.94,0,8.33,3.95,8.33,7.9v17.1c0,3.95-4.39,7.89-8.33,7.89h-112.72v74.57h122.36Z" fill="#fff"/><path d="m2769.85,688.23v186.84c0,3.95-3.95,8.33-7.9,8.33h-20.17c-3.95,0-7.9-4.39-7.9-8.33v-237.28c0-3.95,3.94-8.33,7.9-8.33h25c2.19,0,4.38,1.32,5.7,3.07l145.62,191.67v-186.41c0-3.95,3.94-8.33,7.89-8.33h20.18c3.94,0,7.89,4.39,7.89,8.33v237.28c0,3.95-3.94,8.33-7.89,8.33h-25c-2.2,0-4.39-1.32-5.7-3.07l-145.62-192.11Z" fill="#fff"/><path d="m3257.56,676.38c0,2.63-.87,4.39-3.07,6.14l-14.47,10.52c-1.32.88-3.51,1.76-4.39,1.76-1.75,0-3.51-1.32-4.38-2.63-20.62-24.12-51.76-34.21-84.65-34.21-53.96,0-99.57,42.55-99.57,98.69s45.61,98.68,99.57,98.68c82.02,0,90.35-74.56,90.35-74.56h-56.14c-3.95,0-8.33-3.95-8.33-7.9v-17.1c0-3.95,4.38-7.9,8.33-7.9h83.77c3.94,0,8.33,3.95,8.33,7.9v25.44c-16.67,107.02-114.48,107.02-126.32,107.02-75,0-135.54-58.77-135.54-131.58s60.53-131.58,135.54-131.58c58.77,0,92.55,27.19,108.33,45.61,1.76,1.32,2.63,3.95,2.63,5.7Z" fill="#fff"/><path d="m3363.26,875.07c0,3.95-3.95,8.33-7.9,8.33h-20.17c-3.95,0-7.9-4.39-7.9-8.33v-237.28c0-3.95,3.94-8.33,7.9-8.33h20.17c3.94,0,7.9,4.39,7.9,8.33v237.28Z" fill="#fff"/><path d="m3460.61,688.23v186.84c0,3.95-3.95,8.33-7.9,8.33h-20.17c-3.95,0-7.9-4.39-7.9-8.33v-237.28c0-3.95,3.94-8.33,7.9-8.33h25c2.19,0,4.38,1.32,5.7,3.07l145.62,191.67v-186.41c0-3.95,3.94-8.33,7.89-8.33h20.18c3.94,0,7.89,4.39,7.89,8.33v237.28c0,3.95-3.94,8.33-7.89,8.33h-25c-2.2,0-4.39-1.32-5.7-3.07l-145.62-192.11Z" fill="#fff"/><path d="m3864.54,850.51c3.95,0,8.33,3.94,8.33,7.89v17.1c0,3.95-4.38,7.9-8.33,7.9h-150.43c-3.95,0-7.9-4.39-7.9-8.33v-237.28c0-3.95,3.94-8.33,7.9-8.33h150.43c3.95,0,8.33,3.95,8.33,7.9v17.1c0,3.95-4.38,7.89-8.33,7.89h-122.36v80.71h112.72c3.94,0,8.33,3.95,8.33,7.9v17.1c0,3.95-4.39,7.89-8.33,7.89h-112.72v74.57h122.36Z" fill="#fff"/></svg>